<?xml version="1.0" standalone="no"?>
<svg viewBox="0 0 200 200" xmlns="http://www.w3.org/2000/svg">
  <path fill="#8D2626" d="M35.5,-57.7C47,-54.8,57.9,-47.3,61.6,-36.9C65.3,-26.5,61.7,-13.3,63.7,1.1C65.7,15.5,73.2,31.1,68.1,39C62.9,46.8,45.1,47,31.6,54.2C18.2,61.3,9.1,75.5,-2.4,79.6C-13.9,83.8,-27.7,77.9,-41.7,71C-55.7,64.2,-69.8,56.3,-72.3,44.3C-74.9,32.3,-65.9,16.1,-63,1.7C-60,-12.7,-63.1,-25.5,-58.2,-33.5C-53.4,-41.6,-40.6,-44.9,-29.6,-48C-18.6,-51.2,-9.3,-54.1,1.4,-56.4C12,-58.8,24,-60.6,35.5,-57.7Z" transform="translate(100 100)" />
</svg>
