<?xml version="1.0" standalone="no"?>
<svg viewBox="0 0 200 200" xmlns="http://www.w3.org/2000/svg">
  <path fill="#E1DE7F" d="M27.7,-48.9C38.6,-41.6,52.2,-39.8,60.7,-32.5C69.2,-25.3,72.6,-12.6,75.3,1.6C78.1,15.8,80.1,31.6,73.7,42.4C67.2,53.2,52.3,58.9,38.6,61.3C24.9,63.6,12.4,62.6,-0.5,63.6C-13.5,64.5,-27.1,67.4,-40.8,65.1C-54.5,62.7,-68.4,55.1,-78.1,43.4C-87.9,31.7,-93.5,15.8,-89.8,2.2C-86,-11.5,-72.8,-23,-62.5,-33.7C-52.1,-44.4,-44.6,-54.3,-34.6,-62.1C-24.7,-69.9,-12.4,-75.7,-2,-72.3C8.4,-68.8,16.7,-56.1,27.7,-48.9Z" transform="translate(100 100)" />
</svg>
