<?xml version="1.0" standalone="no"?>
<svg viewBox="0 0 200 200" xmlns="http://www.w3.org/2000/svg">
  <path fill="#658197" d="M30.3,-52.9C42.2,-45.7,56.6,-43.4,63,-35.4C69.4,-27.4,67.7,-13.7,69,0.7C70.3,15.2,74.5,30.3,70.9,43.2C67.4,56.1,56,66.6,42.9,74.8C29.7,82.9,14.9,88.5,3.1,83.1C-8.6,77.7,-17.3,61.3,-30.9,53.5C-44.5,45.6,-63.1,46.4,-73.9,38.9C-84.7,31.4,-87.7,15.7,-83.3,2.5C-78.9,-10.6,-67.1,-21.3,-57.1,-30.1C-47.1,-39,-38.9,-46,-29.7,-54.8C-20.4,-63.5,-10.2,-74,-0.5,-73.1C9.2,-72.3,18.5,-60.1,30.3,-52.9Z" transform="translate(100 100)" />
</svg>
