<?xml version="1.0" standalone="no"?>
<svg viewBox="0 0 200 200" xmlns="http://www.w3.org/2000/svg">
  <path fill="#624B87" d="M27.1,-50.1C37.3,-41.2,49,-38.1,60.9,-30.7C72.9,-23.3,85.2,-11.7,83.7,-0.8C82.3,10,67.1,20,56.9,30.5C46.7,41,41.5,52,32.9,60.2C24.3,68.3,12.1,73.7,-0.6,74.7C-13.3,75.7,-26.6,72.5,-40.8,67.5C-55,62.5,-70,55.8,-73.9,44.3C-77.8,32.7,-70.6,16.4,-67.1,2C-63.6,-12.3,-63.8,-24.7,-58.7,-34.1C-53.6,-43.5,-43.1,-50,-32.4,-58.6C-21.7,-67.2,-10.9,-78,-1.2,-75.9C8.5,-73.9,17,-59.1,27.1,-50.1Z" transform="translate(100 100)" />
</svg>
