<?xml version="1.0" standalone="no"?>
<svg viewBox="0 0 200 200" xmlns="http://www.w3.org/2000/svg">
  <path fill="#0D0D0D" d="M44.6,-73.3C55.9,-70.6,62,-55,63,-40.6C64.1,-26.2,60,-13.1,62.3,1.3C64.6,15.7,73.2,31.5,68.6,39.8C64.1,48.1,46.5,49,32.8,50.6C19.2,52.1,9.6,54.3,-2.5,58.6C-14.6,63,-29.3,69.5,-41.9,67.4C-54.5,65.3,-65.1,54.5,-70.1,41.8C-75,29.2,-74.3,14.6,-70.8,2C-67.4,-10.6,-61.2,-21.2,-53.1,-28.5C-45.1,-35.8,-35.2,-39.9,-26.1,-43.8C-16.9,-47.8,-8.5,-51.6,4.1,-58.7C16.6,-65.7,33.2,-76,44.6,-73.3Z" transform="translate(100 100)" />
</svg>
