<?xml version="1.0" standalone="no"?>
<svg viewBox="0 0 200 200" xmlns="http://www.w3.org/2000/svg">
  <path fill="#C0C0BE" d="M29.6,-49.4C41.2,-44.6,55.4,-42.4,66.5,-34.6C77.7,-26.8,85.7,-13.4,85,-0.4C84.3,12.6,74.9,25.2,67.5,39.4C60.1,53.6,54.6,69.3,43.7,73.1C32.7,77,16.4,68.9,1.7,66C-12.9,63,-25.9,65.1,-39.9,63.1C-54,61,-69.1,54.8,-74.9,43.6C-80.7,32.4,-77.1,16.2,-73.8,1.9C-70.4,-12.4,-67.3,-24.7,-59.8,-32.8C-52.2,-40.9,-40.1,-44.8,-29.4,-50.1C-18.7,-55.4,-9.3,-62.3,-0.2,-62C9,-61.7,18,-54.3,29.6,-49.4Z" transform="translate(100 100)" />
</svg>
