<?xml version="1.0" standalone="no"?>
<svg viewBox="0 0 200 200" xmlns="http://www.w3.org/2000/svg">
  <path fill="#212224" d="M31.4,-53.1C44.2,-47,60.5,-45.7,69.4,-37.6C78.3,-29.5,79.9,-14.8,75.3,-2.7C70.7,9.5,59.9,18.9,51.3,27.4C42.6,36,36.1,43.6,27.9,49C19.7,54.5,9.9,57.8,-2.3,61.9C-14.5,65.9,-29.1,70.8,-38.1,65.8C-47.2,60.9,-50.7,46.1,-59.2,33.5C-67.7,20.9,-81,10.4,-81.4,-0.2C-81.9,-10.9,-69.4,-21.9,-60.5,-33.8C-51.7,-45.7,-46.5,-58.6,-37,-66.6C-27.5,-74.6,-13.8,-77.7,-2.2,-73.8C9.3,-70,18.6,-59.2,31.4,-53.1Z" transform="translate(100 100)" />
</svg>
