<?xml version="1.0" standalone="no"?>
<svg viewBox="0 0 200 200" xmlns="http://www.w3.org/2000/svg">
  <path fill="#A3ACBD" d="M41.9,-69.7C52.4,-66.5,57.7,-51.4,62.7,-37.8C67.7,-24.2,72.4,-12.1,75.9,2C79.4,16.2,81.7,32.3,74.7,42.4C67.7,52.5,51.3,56.5,37.3,62.7C23.3,69,11.6,77.5,-0.2,77.8C-12,78.2,-24,70.3,-36.3,63C-48.5,55.7,-60.9,49,-69.9,38.6C-79,28.2,-84.6,14.1,-80.5,2.3C-76.5,-9.5,-62.8,-18.9,-54.6,-30.7C-46.4,-42.5,-43.6,-56.7,-35.4,-61.2C-27.3,-65.7,-13.6,-60.6,1,-62.4C15.7,-64.2,31.4,-72.9,41.9,-69.7Z" transform="translate(100 100)" />
</svg>
