<?xml version="1.0" standalone="no"?>
<svg viewBox="0 0 200 200" xmlns="http://www.w3.org/2000/svg">
  <path fill="#2D4251" d="M41.6,-73.8C52,-66.1,57.1,-51,65.4,-37.5C73.7,-24,85.2,-12,87.4,1.3C89.6,14.5,82.5,29,74.2,42.6C65.9,56.1,56.4,68.7,43.8,71.4C31.3,74.2,15.6,67.1,3,61.9C-9.6,56.7,-19.2,53.3,-29.9,49.5C-40.6,45.6,-52.3,41.3,-62.4,33C-72.6,24.6,-81.2,12.3,-83.3,-1.2C-85.4,-14.7,-81,-29.5,-70.6,-37.4C-60.2,-45.3,-43.8,-46.3,-31,-52.6C-18.2,-58.9,-9.1,-70.6,3.3,-76.2C15.6,-81.9,31.2,-81.5,41.6,-73.8Z" transform="translate(100 100)" />
</svg>
