<?xml version="1.0" standalone="no"?>
<svg viewBox="0 0 200 200" xmlns="http://www.w3.org/2000/svg">
  <path fill="#724E65" d="M48.8,-68.7C63.9,-66.3,77.1,-53.8,78.9,-39.2C80.7,-24.6,71.1,-7.9,64.7,6.5C58.2,20.8,54.8,32.7,47,39.5C39.2,46.4,26.9,48.1,14.1,55.3C1.2,62.4,-12.2,74.9,-22.6,73.4C-32.9,72,-40.1,56.5,-50.8,44.1C-61.4,31.7,-75.5,22.3,-82,8.8C-88.6,-4.6,-87.6,-22.1,-77.9,-32.4C-68.2,-42.6,-49.8,-45.7,-35.3,-48.4C-20.9,-51.1,-10.4,-53.5,3.2,-58.5C16.9,-63.5,33.8,-71.2,48.8,-68.7Z" transform="translate(100 100)" />
</svg>
