<?xml version="1.0" standalone="no"?>
<svg viewBox="0 0 200 200" xmlns="http://www.w3.org/2000/svg">
  <path fill="#A77665" d="M37.6,-64.5C47.5,-59.5,53.4,-46.9,54.9,-34.8C56.5,-22.8,53.8,-11.4,56.2,1.4C58.5,14.2,66.1,28.3,62.7,37.2C59.3,46.1,45.1,49.8,32.8,52.8C20.5,55.8,10.3,58.2,-1.9,61.4C-14,64.6,-28,68.7,-37.5,64.1C-46.9,59.4,-51.8,46.1,-60.9,34C-69.9,21.8,-83,10.9,-83,0C-83.1,-11,-70.1,-22,-62.1,-35.9C-54.1,-49.8,-51.2,-66.7,-41.7,-71.9C-32.2,-77.1,-16.1,-70.7,-1.1,-68.8C13.9,-66.9,27.8,-69.5,37.6,-64.5Z" transform="translate(100 100)" />
</svg>
