<?xml version="1.0" standalone="no"?>
<svg viewBox="0 0 200 200" xmlns="http://www.w3.org/2000/svg">
  <path fill="#A2333B" d="M26.3,-44.1C35.1,-40.4,44.1,-35.5,53.7,-28C63.3,-20.4,73.4,-10.2,73.3,0C73.3,10.2,63.1,20.3,57.2,34.3C51.4,48.3,49.9,66,41,71.5C32.2,77.1,16.1,70.4,0.5,69.4C-15.1,68.5,-30.1,73.4,-37.8,67.2C-45.6,61.1,-46,43.9,-48.8,30.9C-51.6,17.8,-56.9,8.9,-61.4,-2.6C-65.8,-14.1,-69.6,-28.2,-65.2,-38.6C-60.9,-49,-48.4,-55.6,-36.2,-57.5C-24,-59.3,-12,-56.3,-1.6,-53.5C8.7,-50.6,17.4,-47.9,26.3,-44.1Z" transform="translate(100 100)" />
</svg>
