<?xml version="1.0" standalone="no"?>
<svg viewBox="0 0 200 200" xmlns="http://www.w3.org/2000/svg">
  <path fill="#AC110F" d="M30.6,-59.8C38,-48.8,41.2,-37.2,51.3,-27.1C61.5,-17,78.7,-8.5,81.7,1.7C84.7,12,73.4,23.9,62.4,32.5C51.4,41.1,40.5,46.2,30.2,48.9C19.8,51.5,9.9,51.6,-0.7,52.9C-11.4,54.1,-22.7,56.6,-32.3,53.5C-41.8,50.4,-49.5,41.7,-55.8,31.8C-62.1,22,-67,11,-70.6,-2.1C-74.3,-15.2,-76.7,-30.4,-69.9,-39.4C-63.1,-48.4,-47.1,-51.1,-33.9,-58.7C-20.7,-66.4,-10.4,-79,0.6,-80.1C11.6,-81.2,23.3,-70.8,30.6,-59.8Z" transform="translate(100 100)" />
</svg>
