<?xml version="1.0" standalone="no"?>
<svg viewBox="0 0 200 200" xmlns="http://www.w3.org/2000/svg">
  <path fill="#E4DED2" d="M27.2,-46.1C37.6,-41.1,50,-38.6,60.4,-31.3C70.7,-24,79,-12,83,2.3C86.9,16.6,86.6,33.2,76.2,40.5C65.9,47.8,45.6,45.8,31.2,50.9C16.9,56,8.4,68.1,-2.8,72.9C-14,77.7,-27.9,75.1,-39.1,68.2C-50.2,61.2,-58.5,49.9,-67.6,37.8C-76.8,25.7,-86.7,12.9,-86.1,0.3C-85.6,-12.2,-74.5,-24.4,-64.5,-35C-54.5,-45.5,-45.5,-54.4,-34.9,-59.3C-24.4,-64.2,-12.2,-65.1,-1.9,-61.8C8.4,-58.6,16.8,-51.1,27.2,-46.1Z" transform="translate(100 100)" />
</svg>
