<?xml version="1.0" standalone="no"?>
<svg viewBox="0 0 200 200" xmlns="http://www.w3.org/2000/svg">
  <path fill="#01AFB3" d="M40.8,-70.2C53.4,-63.3,64.6,-53.5,66.8,-41.3C69.1,-29.2,62.4,-14.6,63,0.4C63.6,15.3,71.5,30.6,68.8,41.9C66,53.2,52.6,60.5,39.4,61.3C26.1,62,13.1,56.1,-1.4,58.6C-15.9,61,-31.8,71.9,-44.7,70.9C-57.5,69.9,-67.2,57.2,-72.4,43.4C-77.7,29.6,-78.6,14.8,-79.3,-0.4C-80,-15.6,-80.4,-31.1,-72.3,-40C-64.2,-48.9,-47.4,-51,-33.9,-57.4C-20.5,-63.9,-10.2,-74.6,1.9,-77.9C14.1,-81.2,28.1,-77.1,40.8,-70.2Z" transform="translate(100 100)" />
</svg>
