<?xml version="1.0" standalone="no"?>
<svg viewBox="0 0 200 200" xmlns="http://www.w3.org/2000/svg">
  <path fill="#CDCFCE" d="M44,-69.5C57.3,-68.5,68.7,-57.3,71.8,-44.1C74.9,-30.8,69.7,-15.4,67.7,-1.2C65.7,13.1,66.8,26.2,60.7,34.2C54.6,42.3,41.3,45.3,29.9,51.6C18.6,57.8,9.3,67.3,-1.1,69.3C-11.6,71.3,-23.2,65.7,-32.9,58.5C-42.6,51.3,-50.4,42.5,-59.8,32.4C-69.3,22.4,-80.4,11.2,-79.7,0.4C-79.1,-10.4,-66.6,-20.9,-58,-32.3C-49.4,-43.8,-44.5,-56.2,-35.5,-59.8C-26.5,-63.3,-13.2,-57.9,1.1,-59.7C15.3,-61.5,30.7,-70.6,44,-69.5Z" transform="translate(100 100)" />
</svg>
