<?xml version="1.0" standalone="no"?>
<svg viewBox="0 0 200 200" xmlns="http://www.w3.org/2000/svg">
  <path fill="#24272C" d="M30.7,-49C42.3,-46.5,55.9,-43.3,63.1,-35C70.3,-26.7,71,-13.4,73.1,1.2C75.1,15.7,78.4,31.5,71.7,40.5C64.9,49.5,48.1,51.8,34.4,57.8C20.8,63.8,10.4,73.5,-0.4,74.2C-11.3,75,-22.6,66.8,-35.8,60.6C-49.1,54.4,-64.4,50.2,-69.4,40.4C-74.4,30.7,-69.2,15.3,-65.4,2.2C-61.7,-11,-59.4,-22,-53,-29.4C-46.6,-36.7,-36,-40.4,-26.5,-44.1C-17,-47.9,-8.5,-51.6,0.5,-52.5C9.6,-53.4,19.1,-51.5,30.7,-49Z" transform="translate(100 100)" />
</svg>
