<?xml version="1.0" standalone="no"?>
<svg viewBox="0 0 200 200" xmlns="http://www.w3.org/2000/svg">
  <path fill="#A3A2A0" d="M42.3,-74.3C51.8,-67.8,54.3,-50.3,62.1,-36.1C70,-21.8,83.3,-10.9,83.4,0.1C83.6,11.1,70.7,22.2,62,35.1C53.4,48,49,62.7,39.4,70.1C29.8,77.5,14.9,77.5,0.2,77.2C-14.6,76.9,-29.1,76.3,-39.4,69.3C-49.6,62.3,-55.6,48.9,-63.7,36.3C-71.7,23.7,-81.9,11.8,-82.2,-0.2C-82.6,-12.2,-73,-24.4,-65,-37.1C-57,-49.8,-50.5,-63,-39.9,-68.8C-29.3,-74.6,-14.7,-73,0.9,-74.5C16.4,-76,32.9,-80.7,42.3,-74.3Z" transform="translate(100 100)" />
</svg>
