<?xml version="1.0" standalone="no"?>
<svg viewBox="0 0 200 200" xmlns="http://www.w3.org/2000/svg">
  <path fill="#581F26" d="M41.4,-70.2C50.2,-66.7,51.4,-48.5,59.8,-34.4C68.3,-20.2,84,-10.1,84.9,0.5C85.8,11.1,71.8,22.3,60.7,31.8C49.6,41.3,41.3,49.3,31.6,52.3C22,55.3,11,53.4,-1.3,55.6C-13.6,57.9,-27.3,64.4,-36.5,61.1C-45.7,57.8,-50.5,44.9,-55.8,33.1C-61.2,21.3,-67.1,10.6,-66.6,0.3C-66,-10,-59.1,-20.1,-52.6,-29.9C-46.1,-39.7,-40.1,-49.3,-31.4,-52.9C-22.7,-56.4,-11.3,-54,2.5,-58.3C16.3,-62.7,32.7,-73.8,41.4,-70.2Z" transform="translate(100 100)" />
</svg>
