<?xml version="1.0" standalone="no"?>
<svg viewBox="0 0 200 200" xmlns="http://www.w3.org/2000/svg">
  <path fill="#DFD5D3" d="M42.2,-66.5C55.8,-65.3,68.6,-56.1,76.7,-43.7C84.7,-31.3,88,-15.7,84.9,-1.8C81.8,12.1,72.3,24.2,62,32.6C51.6,41.1,40.5,46,30.1,54.9C19.6,63.7,9.8,76.5,-3.2,82.1C-16.2,87.6,-32.5,86,-39.8,75.4C-47.1,64.7,-45.5,45,-52.9,31C-60.4,16.9,-76.9,8.5,-79.1,-1.3C-81.3,-11,-69.4,-22.1,-59.3,-31.5C-49.2,-41,-40.9,-48.8,-31.4,-52.3C-21.8,-55.8,-10.9,-55,1.7,-58C14.3,-60.9,28.6,-67.7,42.2,-66.5Z" transform="translate(100 100)" />
</svg>
