<?xml version="1.0" standalone="no"?>
<svg viewBox="0 0 200 200" xmlns="http://www.w3.org/2000/svg">
  <path fill="#3A3A3C" d="M42.9,-71.7C55.5,-67.1,65.4,-55.3,67.6,-42.2C69.7,-29,64.1,-14.5,60.8,-1.9C57.5,10.7,56.6,21.5,51.9,30.2C47.3,39,38.8,45.7,29.5,55.5C20.2,65.3,10.1,78.1,-2,81.6C-14.2,85.1,-28.3,79.3,-40.1,71C-51.9,62.6,-61.3,51.7,-69.7,39.5C-78,27.2,-85.2,13.6,-84.8,0.2C-84.5,-13.2,-76.5,-26.4,-68.9,-39.9C-61.3,-53.4,-54,-67.1,-42.5,-72.4C-31.1,-77.8,-15.6,-74.7,-0.2,-74.3C15.2,-74,30.3,-76.4,42.9,-71.7Z" transform="translate(100 100)" />
</svg>
