<?xml version="1.0" standalone="no"?>
<svg viewBox="0 0 200 200" xmlns="http://www.w3.org/2000/svg">
  <path fill="#ADADAB" d="M41.3,-70.4C50.8,-66,54,-49.5,60.6,-35.7C67.1,-22,77.1,-11,79.8,1.5C82.4,14.1,77.8,28.1,67.5,35.4C57.2,42.8,41.2,43.3,29.1,50.9C16.9,58.5,8.4,73.2,-0.7,74.4C-9.8,75.6,-19.6,63.3,-28.8,54C-38,44.6,-46.5,38.2,-51.7,29.7C-56.8,21.2,-58.5,10.6,-60.4,-1.1C-62.3,-12.7,-64.2,-25.5,-58.9,-33.7C-53.6,-41.9,-41,-45.5,-29.9,-49C-18.9,-52.6,-9.5,-56,3.2,-61.6C15.9,-67.2,31.7,-74.8,41.3,-70.4Z" transform="translate(100 100)" />
</svg>
