<?xml version="1.0" standalone="no"?>
<svg viewBox="0 0 200 200" xmlns="http://www.w3.org/2000/svg">
  <path fill="#CB5138" d="M31.8,-60.1C39.7,-50.6,43.6,-39,50.1,-28.6C56.6,-18.3,65.8,-9.1,70.7,2.8C75.7,14.8,76.4,29.7,68.2,37.2C60.1,44.8,43.2,45.1,30.3,53.3C17.5,61.4,8.7,77.4,-2.7,82C-14.1,86.7,-28.2,80,-41.8,72.3C-55.3,64.5,-68.3,55.7,-76.8,43.5C-85.4,31.3,-89.7,15.6,-90.1,-0.2C-90.5,-16.1,-87,-32.1,-75.7,-39.6C-64.3,-47.1,-45.2,-46.1,-31.2,-52.1C-17.3,-58.2,-8.7,-71.4,1.7,-74.2C12,-77.1,23.9,-69.6,31.8,-60.1Z" transform="translate(100 100)" />
</svg>
