<?xml version="1.0" standalone="no"?>
<svg viewBox="0 0 200 200" xmlns="http://www.w3.org/2000/svg">
  <path fill="#343235" d="M33.6,-57.7C47,-50.5,63.7,-48.4,73,-39.7C82.3,-30.9,84.2,-15.5,80.9,-1.9C77.6,11.7,69.1,23.4,59.7,31.8C50.2,40.3,39.8,45.5,29.7,52.8C19.6,60,9.8,69.2,-2.8,74C-15.3,78.8,-30.6,79.1,-38.5,70.6C-46.4,62.1,-46.9,44.7,-55.7,31.5C-64.4,18.3,-81.3,9.1,-81.3,0C-81.2,-9.1,-64.1,-18.1,-52.6,-26.5C-41,-34.8,-35,-42.4,-27.1,-52.9C-19.3,-63.3,-9.6,-76.6,0.2,-77C10.1,-77.4,20.2,-64.9,33.6,-57.7Z" transform="translate(100 100)" />
</svg>
