<?xml version="1.0" standalone="no"?>
<svg viewBox="0 0 200 200" xmlns="http://www.w3.org/2000/svg">
  <path fill="#BC333D" d="M42.4,-70C54.6,-66.5,63.8,-54.3,68.5,-41.2C73.2,-28.1,73.4,-14,75,0.9C76.6,15.9,79.6,31.8,72.5,40.7C65.3,49.6,48,51.4,34.3,58.2C20.5,65,10.3,76.6,-0.2,76.9C-10.6,77.1,-21.1,66,-31.3,57.2C-41.5,48.3,-51.3,41.8,-58.3,32.7C-65.4,23.5,-69.7,11.8,-69.4,0.2C-69.1,-11.4,-64.3,-22.9,-57.6,-32.8C-51,-42.7,-42.7,-51,-32.8,-55.8C-22.9,-60.6,-11.4,-61.9,1.9,-65.1C15.1,-68.3,30.3,-73.5,42.4,-70Z" transform="translate(100 100)" />
</svg>
