<?xml version="1.0" standalone="no"?>
<svg viewBox="0 0 200 200" xmlns="http://www.w3.org/2000/svg">
  <path fill="#202021" d="M43.2,-74.5C54.1,-68.4,59.8,-53.1,66.4,-39.2C73.1,-25.2,80.7,-12.6,78.6,-1.2C76.6,10.2,64.8,20.4,57.2,32.7C49.6,45.1,46.1,59.5,37.3,63.4C28.5,67.3,14.2,60.6,2.1,57C-10.1,53.5,-20.3,53,-33.1,51.5C-45.9,49.9,-61.4,47.1,-70.7,38.4C-80,29.6,-83.1,14.8,-83,0C-82.9,-14.7,-79.7,-29.4,-71.1,-39.4C-62.5,-49.4,-48.5,-54.7,-35.8,-59.7C-23.1,-64.7,-11.5,-69.6,2.3,-73.5C16.1,-77.5,32.2,-80.6,43.2,-74.5Z" transform="translate(100 100)" />
</svg>
