<?xml version="1.0" standalone="no"?>
<svg viewBox="0 0 200 200" xmlns="http://www.w3.org/2000/svg">
  <path fill="#E6ABA5" d="M41.8,-67.6C55,-64.8,66.9,-55.2,72.3,-42.8C77.7,-30.3,76.7,-15.2,70.9,-3.3C65.2,8.5,54.8,17.1,50.5,31.5C46.2,45.9,48.1,66.1,40.7,77.8C33.3,89.5,16.6,92.7,3.1,87.4C-10.5,82.1,-21,68.4,-35.3,60.7C-49.6,52.9,-67.6,51.2,-75.6,42.1C-83.5,33,-81.5,16.5,-77.3,2.4C-73.1,-11.7,-66.8,-23.3,-59.8,-34C-52.8,-44.8,-45,-54.6,-34.9,-59.1C-24.8,-63.6,-12.4,-62.8,1,-64.4C14.3,-66.1,28.7,-70.3,41.8,-67.6Z" transform="translate(100 100)" />
</svg>
