<?xml version="1.0" standalone="no"?>
<svg viewBox="0 0 200 200" xmlns="http://www.w3.org/2000/svg">
  <path fill="#26668F" d="M41.5,-75.3C50,-67.1,50.3,-48.1,57.5,-33.8C64.8,-19.5,79.1,-9.7,83.6,2.6C88.1,14.9,82.9,29.9,74.5,42.3C66.1,54.7,54.5,64.6,41.6,66.7C28.6,68.9,14.3,63.5,0.3,63C-13.8,62.5,-27.5,67,-41.8,65.5C-56,64.1,-70.8,56.8,-77,44.8C-83.3,32.9,-81,16.5,-78.9,1.2C-76.8,-14,-74.9,-28.1,-66.9,-36.9C-58.9,-45.8,-44.8,-49.4,-32.6,-55.5C-20.4,-61.5,-10.2,-70,3.2,-75.4C16.5,-80.9,33.1,-83.5,41.5,-75.3Z" transform="translate(100 100)" />
</svg>
