<?xml version="1.0" standalone="no"?>
<svg viewBox="0 0 200 200" xmlns="http://www.w3.org/2000/svg">
  <path fill="#DB3218" d="M32.1,-58.3C39.4,-51.3,41.9,-38.4,51.8,-27.7C61.6,-17.1,79,-8.5,79.4,0.3C79.9,9,63.4,18.1,53.3,28.3C43.2,38.6,39.4,50.1,31.5,54.5C23.7,58.9,11.9,56.2,0.3,55.7C-11.3,55.1,-22.5,56.8,-34.7,54.9C-46.8,53,-59.8,47.5,-66.2,37.8C-72.5,28,-72.2,14,-71.5,0.4C-70.8,-13.2,-69.7,-26.4,-62,-33.8C-54.3,-41.2,-40,-42.8,-28.5,-47.5C-17.1,-52.2,-8.6,-59.9,1.9,-63.2C12.3,-66.5,24.7,-65.3,32.1,-58.3Z" transform="translate(100 100)" />
</svg>
