<?xml version="1.0" standalone="no"?>
<svg viewBox="0 0 200 200" xmlns="http://www.w3.org/2000/svg">
  <path fill="#AB946D" d="M27.8,-51.1C37.5,-42.6,47.7,-38.1,59.3,-30.2C70.8,-22.3,83.6,-11.2,84.9,0.8C86.2,12.7,76,25.3,64.9,33.8C53.7,42.3,41.5,46.6,30.6,56.6C19.6,66.7,9.8,82.4,-1.8,85.5C-13.4,88.6,-26.8,79.1,-35.3,67.7C-43.8,56.2,-47.4,42.8,-56.3,31.2C-65.3,19.6,-79.6,9.8,-85,-3.2C-90.5,-16.1,-87.2,-32.3,-77,-41.8C-66.9,-51.3,-49.9,-54.2,-36,-60.2C-22,-66.2,-11,-75.3,-1,-73.7C9.1,-72,18.2,-59.6,27.8,-51.1Z" transform="translate(100 100)" />
</svg>
