<?xml version="1.0" standalone="no"?>
<svg viewBox="0 0 200 200" xmlns="http://www.w3.org/2000/svg">
  <path fill="#6B5641" d="M30.5,-53.6C42.9,-45.7,58.6,-44.3,70.2,-36.4C81.7,-28.6,89.2,-14.3,84.5,-2.7C79.7,8.8,62.8,17.6,52.8,28.3C42.9,39.1,40,51.7,32.4,57.7C24.8,63.7,12.4,63.1,-1.9,66.4C-16.2,69.6,-32.3,76.8,-44.8,73.6C-57.4,70.4,-66.3,56.9,-73.8,42.9C-81.3,28.9,-87.4,14.5,-82.8,2.7C-78.1,-9.1,-62.6,-18.1,-54.6,-31.4C-46.7,-44.6,-46.3,-62,-38.4,-72.5C-30.6,-83,-15.3,-86.5,-3.1,-81.1C9.1,-75.7,18.2,-61.4,30.5,-53.6Z" transform="translate(100 100)" />
</svg>
