<?xml version="1.0" standalone="no"?>
<svg viewBox="0 0 200 200" xmlns="http://www.w3.org/2000/svg">
  <path fill="#831E29" d="M31.3,-52.8C43.9,-46.9,59.7,-45.2,70.8,-37.2C81.8,-29.1,88.2,-14.5,84.4,-2.2C80.7,10.2,66.8,20.4,58,32.4C49.2,44.5,45.5,58.4,36.6,65.9C27.8,73.4,13.9,74.6,0.3,74C-13.2,73.4,-26.4,71,-37.4,64.7C-48.3,58.4,-56.9,48.1,-63.4,36.7C-69.8,25.2,-74.1,12.6,-73.4,0.4C-72.7,-11.8,-66.9,-23.5,-59.5,-33.4C-52.1,-43.2,-43,-51,-32.8,-58.2C-22.6,-65.4,-11.3,-72.1,-1,-70.3C9.3,-68.6,18.7,-58.6,31.3,-52.8Z" transform="translate(100 100)" />
</svg>
