<?xml version="1.0" standalone="no"?>
<svg viewBox="0 0 200 200" xmlns="http://www.w3.org/2000/svg">
  <path fill="#18A4D9" d="M28,-48.6C37.8,-42.8,48.3,-38.4,58.7,-30.5C69.1,-22.7,79.2,-11.3,83.6,2.6C88.1,16.5,86.9,33,77.7,42.8C68.5,52.7,51.4,56,37.1,60.6C22.8,65.1,11.4,70.8,0.1,70.7C-11.3,70.6,-22.6,64.7,-36.7,60C-50.7,55.4,-67.5,52,-78,42.2C-88.5,32.4,-92.8,16.2,-92.8,0C-92.8,-16.2,-88.4,-32.4,-77.4,-41.3C-66.4,-50.3,-48.7,-52.1,-34.7,-55.4C-20.7,-58.8,-10.4,-63.8,-0.6,-62.7C9.1,-61.6,18.1,-54.4,28,-48.6Z" transform="translate(100 100)" />
</svg>
