<?xml version="1.0" standalone="no"?>
<svg viewBox="0 0 200 200" xmlns="http://www.w3.org/2000/svg">
  <path fill="#C9A4AA" d="M36.3,-55.6C50.6,-54.7,68,-52,76.7,-42.4C85.4,-32.9,85.4,-16.4,80.4,-2.9C75.5,10.7,65.6,21.4,55.6,28.8C45.7,36.2,35.6,40.2,26.3,45.9C17,51.6,8.5,59.1,-2.7,63.8C-14,68.6,-28,70.6,-42,67.6C-56,64.6,-70,56.6,-73.2,44.4C-76.4,32.3,-68.8,16.2,-64.9,2.2C-61.1,-11.7,-61,-23.5,-58.3,-36.4C-55.6,-49.4,-50.2,-63.5,-40.1,-66.8C-29.9,-70,-15,-62.2,-2,-58.8C11,-55.5,22.1,-56.4,36.3,-55.6Z" transform="translate(100 100)" />
</svg>
