<?xml version="1.0" standalone="no"?>
<svg viewBox="0 0 200 200" xmlns="http://www.w3.org/2000/svg">
  <path fill="#82AFD6" d="M41.6,-74.7C51.5,-66.4,55.2,-50.2,63.2,-36.5C71.2,-22.7,83.3,-11.4,87.1,2.2C90.9,15.8,86.4,31.5,75.6,40.3C64.7,49,47.5,50.7,33.8,51.9C20.2,53,10.1,53.4,-0.9,55C-11.9,56.5,-23.8,59.2,-35.6,57C-47.4,54.8,-59,47.8,-69.7,37.5C-80.5,27.2,-90.2,13.6,-86.6,2.1C-83,-9.5,-66.1,-19,-57.1,-32.2C-48.1,-45.4,-47,-62.4,-38.8,-71.6C-30.5,-80.8,-15.3,-82.3,0.3,-82.8C15.9,-83.4,31.8,-83,41.6,-74.7Z" transform="translate(100 100)" />
</svg>
