<?xml version="1.0" standalone="no"?>
<svg viewBox="0 0 200 200" xmlns="http://www.w3.org/2000/svg">
  <path fill="#615C3F" d="M32.5,-56.7C39.8,-52.1,41.7,-38.6,49.4,-27.7C57.2,-16.8,70.8,-8.4,75.9,2.9C80.9,14.2,77.5,28.5,70.5,40.7C63.5,52.9,52.9,63.2,40.6,68.8C28.2,74.4,14.1,75.3,1.9,72C-10.3,68.7,-20.6,61.1,-34.1,56.2C-47.7,51.3,-64.4,49.1,-71.6,40.2C-78.7,31.2,-76.3,15.6,-73.4,1.7C-70.4,-12.3,-67.1,-24.5,-60.5,-34.4C-53.8,-44.2,-43.9,-51.6,-33.3,-54.3C-22.7,-56.9,-11.4,-54.8,0.6,-55.9C12.6,-57,25.2,-61.3,32.5,-56.7Z" transform="translate(100 100)" />
</svg>
