<?xml version="1.0" standalone="no"?>
<svg viewBox="0 0 200 200" xmlns="http://www.w3.org/2000/svg">
  <path fill="#202021" d="M29.7,-48.3C40.8,-45,53.7,-41.7,63.6,-33.7C73.4,-25.7,80.1,-12.8,78.9,-0.6C77.8,11.5,68.9,23.1,60.9,34.2C52.9,45.3,45.7,56.1,35.7,60.2C25.7,64.4,12.8,62,-1,63.8C-14.8,65.5,-29.6,71.3,-43.5,69.3C-57.3,67.3,-70.1,57.6,-78.6,44.8C-87.2,31.9,-91.4,16,-86.2,3C-81,-10,-66.4,-19.9,-56.6,-30.6C-46.8,-41.3,-41.9,-52.7,-33.3,-57.4C-24.7,-62.1,-12.3,-60.1,-1.5,-57.5C9.3,-54.9,18.6,-51.5,29.7,-48.3Z" transform="translate(100 100)" />
</svg>
