<?xml version="1.0" standalone="no"?>
<svg viewBox="0 0 200 200" xmlns="http://www.w3.org/2000/svg">
  <path fill="#37A26E" d="M31.2,-49.6C43.5,-46.8,58.8,-44.8,68,-36.7C77.2,-28.5,80.4,-14.3,77.7,-1.6C75,11.2,66.5,22.3,58.1,31.9C49.7,41.4,41.4,49.4,31.8,53.6C22.1,57.7,11,58,-2.8,62.9C-16.7,67.7,-33.3,77.1,-41.1,71.9C-49,66.7,-48,47,-52.7,32.5C-57.4,18.1,-67.8,9.1,-70.1,-1.3C-72.4,-11.7,-66.5,-23.4,-58,-31.2C-49.5,-39,-38.3,-43,-28.2,-47C-18.1,-51.1,-9,-55.3,0.2,-55.7C9.4,-56,18.8,-52.4,31.2,-49.6Z" transform="translate(100 100)" />
</svg>
