<?xml version="1.0" standalone="no"?>
<svg viewBox="0 0 200 200" xmlns="http://www.w3.org/2000/svg">
  <path fill="#D8B8A3" d="M44,-68.4C57.6,-59.8,69.5,-48.5,75.9,-34.6C82.3,-20.7,83.3,-4.3,78.2,9.2C73,22.7,61.8,33.3,52.3,46.6C42.8,60,34.9,76.2,22.9,81.3C10.8,86.4,-5.5,80.4,-17.1,71.1C-28.6,61.8,-35.5,49.2,-48.3,39.2C-61.1,29.2,-80,21.7,-86.3,9.4C-92.7,-2.8,-86.6,-19.8,-75.1,-29.9C-63.6,-39.9,-46.7,-43.1,-33.2,-51.7C-19.8,-60.3,-9.9,-74.3,2.7,-78.5C15.2,-82.6,30.5,-76.9,44,-68.4Z" transform="translate(100 100)" />
</svg>
