<?xml version="1.0" standalone="no"?>
<svg viewBox="0 0 200 200" xmlns="http://www.w3.org/2000/svg">
  <path fill="#6A3C33" d="M42.6,-73.3C52.3,-68.3,55.3,-50.9,57,-36.7C58.7,-22.4,59.3,-11.2,62.5,1.8C65.7,14.9,71.4,29.7,68.3,41.6C65.2,53.6,53.3,62.6,40.4,65.2C27.5,67.8,13.8,64,1.2,61.9C-11.3,59.8,-22.7,59.4,-30,53.6C-37.3,47.7,-40.6,36.6,-47.6,26.7C-54.6,16.9,-65.3,8.5,-69.3,-2.3C-73.4,-13.1,-70.8,-26.2,-63.5,-35.6C-56.2,-44.9,-44.3,-50.5,-32.9,-54.5C-21.6,-58.5,-10.8,-61,2.8,-65.9C16.5,-70.9,33,-78.2,42.6,-73.3Z" transform="translate(100 100)" />
</svg>
