<?xml version="1.0" standalone="no"?>
<svg viewBox="0 0 200 200" xmlns="http://www.w3.org/2000/svg">
  <path fill="#2C3145" d="M24.7,-42.9C32.2,-38.4,38.8,-32.3,49.7,-24.8C60.7,-17.4,76.1,-8.7,77.6,0.9C79.2,10.5,67,21.1,56.6,29.5C46.2,37.9,37.6,44.1,28.5,47.3C19.4,50.5,9.7,50.7,-2.7,55.3C-15.1,60,-30.1,69.1,-41.2,67.1C-52.3,65,-59.5,51.7,-65.9,38.7C-72.3,25.6,-78,12.8,-81,-1.7C-84,-16.3,-84.4,-32.6,-75,-40.6C-65.7,-48.6,-46.7,-48.4,-32.6,-49.1C-18.5,-49.8,-9.3,-51.5,-0.3,-50.9C8.6,-50.3,17.1,-47.4,24.7,-42.9Z" transform="translate(100 100)" />
</svg>
