<?xml version="1.0" standalone="no"?>
<svg viewBox="0 0 200 200" xmlns="http://www.w3.org/2000/svg">
  <path fill="#80132A" d="M31.8,-51.7C43.5,-48.2,57,-44.4,65.9,-35.8C74.7,-27.1,79,-13.6,74.8,-2.5C70.5,8.7,57.8,17.3,50.2,28.3C42.7,39.3,40.3,52.6,32.9,58.6C25.4,64.7,12.7,63.5,-0.9,65C-14.4,66.5,-28.8,70.6,-36.4,64.6C-44,58.6,-44.8,42.5,-46.7,30C-48.6,17.6,-51.5,8.8,-53.9,-1.4C-56.4,-11.6,-58.3,-23.2,-55.3,-33.7C-52.2,-44.2,-44.3,-53.6,-34.3,-58.1C-24.3,-62.6,-12.1,-62.2,-1.1,-60.3C10,-58.5,20,-55.2,31.8,-51.7Z" transform="translate(100 100)" />
</svg>
