<?xml version="1.0" standalone="no"?>
<svg viewBox="0 0 200 200" xmlns="http://www.w3.org/2000/svg">
  <path fill="#2C2C2E" d="M32.2,-51.4C46.5,-47.6,66,-48.5,74.1,-40.7C82.2,-32.9,78.9,-16.5,77.8,-0.6C76.7,15.2,77.8,30.4,71.8,41.8C65.9,53.3,52.8,61.1,39.6,63.6C26.5,66.1,13.2,63.5,0.3,63C-12.7,62.6,-25.4,64.3,-37,60.9C-48.5,57.4,-58.9,48.7,-67,37.7C-75.2,26.7,-81,13.3,-77.3,2.1C-73.6,-9.1,-60.3,-18.1,-52.8,-30.1C-45.2,-42.1,-43.4,-57.1,-35.6,-64.6C-27.7,-72,-13.9,-71.9,-2.4,-67.7C9,-63.5,18,-55.1,32.2,-51.4Z" transform="translate(100 100)" />
</svg>
