<?xml version="1.0" standalone="no"?>
<svg viewBox="0 0 200 200" xmlns="http://www.w3.org/2000/svg">
  <path fill="#202021" d="M27.7,-49C36.6,-42.9,44.9,-36.8,55,-28.7C65,-20.5,76.9,-10.2,79.5,1.5C82.2,13.3,75.8,26.7,68.2,39.2C60.7,51.8,52.1,63.5,40.5,68C29,72.5,14.5,69.8,0.4,69C-13.6,68.2,-27.2,69.5,-35.1,62.8C-43,56.2,-45.1,41.7,-54.3,30C-63.5,18.2,-79.9,9.1,-80.6,-0.4C-81.3,-9.9,-66.3,-19.8,-54.7,-27.4C-43,-34.9,-34.6,-40.2,-26.1,-46.4C-17.5,-52.7,-8.7,-60,0.3,-60.6C9.4,-61.2,18.9,-55.1,27.7,-49Z" transform="translate(100 100)" />
</svg>
