<?xml version="1.0" standalone="no"?>
<svg viewBox="0 0 200 200" xmlns="http://www.w3.org/2000/svg">
  <path fill="#E5E7C0" d="M29.5,-46.9C40.7,-44.7,53.8,-41.7,63.1,-33.7C72.3,-25.8,77.7,-12.9,79.5,1C81.2,14.9,79.4,29.8,72.3,41.5C65.1,53.2,52.8,61.6,39.9,69.8C26.9,77.9,13.5,85.8,1.2,83.7C-11,81.5,-22,69.3,-34.1,60.7C-46.2,52.1,-59.4,47,-70.2,37.5C-81,27.9,-89.3,14,-87.7,1C-86,-12,-74.3,-24.1,-66.3,-38.5C-58.3,-52.9,-54.1,-69.6,-43.6,-72.2C-33.2,-74.9,-16.6,-63.4,-3.7,-57C9.2,-50.6,18.4,-49.1,29.5,-46.9Z" transform="translate(100 100)" />
</svg>
