<?xml version="1.0" standalone="no"?>
<svg viewBox="0 0 200 200" xmlns="http://www.w3.org/2000/svg">
  <path fill="#E29B01" d="M33.6,-60.2C41.2,-53.9,43.3,-40,50.8,-28.8C58.2,-17.5,71.1,-8.7,77.3,3.6C83.5,15.9,83,31.8,76.3,44.3C69.5,56.7,56.3,65.8,42.6,69C28.8,72.2,14.4,69.5,-0.6,70.6C-15.7,71.7,-31.4,76.6,-44.5,73C-57.6,69.4,-68.1,57.4,-70,43.8C-72,30.3,-65.3,15.1,-63.8,0.9C-62.3,-13.4,-65.9,-26.7,-62.8,-38.3C-59.7,-49.9,-49.9,-59.7,-38.3,-63.6C-26.7,-67.6,-13.4,-65.8,-0.2,-65.5C13,-65.2,26.1,-66.5,33.6,-60.2Z" transform="translate(100 100)" />
</svg>
