<?xml version="1.0" standalone="no"?>
<svg viewBox="0 0 200 200" xmlns="http://www.w3.org/2000/svg">
  <path fill="#AAC1E0" d="M42.8,-70.1C54.6,-67.4,62.5,-54,64.1,-40.6C65.7,-27.1,61,-13.6,62.8,1C64.6,15.6,72.8,31.2,69.2,41.1C65.5,51,49.9,55.2,36.4,60C22.8,64.9,11.4,70.5,1.2,68.5C-9.1,66.5,-18.2,57,-30.8,51.6C-43.5,46.2,-59.6,44.9,-64.4,37C-69.3,29.1,-62.9,14.6,-61.3,0.9C-59.7,-12.7,-62.8,-25.4,-58,-33.4C-53.2,-41.4,-40.5,-44.9,-29.6,-48C-18.6,-51,-9.3,-53.8,3.1,-59.2C15.5,-64.7,31.1,-72.7,42.8,-70.1Z" transform="translate(100 100)" />
</svg>
