<?xml version="1.0" standalone="no"?>
<svg viewBox="0 0 200 200" xmlns="http://www.w3.org/2000/svg">
  <path fill="#5C5C5E" d="M28.7,-51.4C40.5,-43,55.5,-41.8,63.8,-34.5C72,-27.1,73.6,-13.6,76.1,1.5C78.7,16.5,82.2,33,74.8,42C67.5,51,49.3,52.4,35,56.5C20.7,60.5,10.4,67.2,-2.4,71.4C-15.2,75.5,-30.4,77.3,-43.1,72.3C-55.8,67.3,-65.9,55.6,-67.2,42.4C-68.4,29.3,-60.8,14.6,-60.2,0.4C-59.5,-13.9,-65.7,-27.7,-63.7,-39.6C-61.7,-51.5,-51.4,-61.4,-39.4,-69.6C-27.4,-77.8,-13.7,-84.3,-2.6,-79.8C8.5,-75.3,17,-59.7,28.7,-51.4Z" transform="translate(100 100)" />
</svg>
