<?xml version="1.0" standalone="no"?>
<svg viewBox="0 0 200 200" xmlns="http://www.w3.org/2000/svg">
  <path fill="#75B1BD" d="M38.4,-63.2C52,-58.6,66.8,-52.8,76.3,-42.1C85.9,-31.4,90.3,-15.7,89.6,-0.4C89,15,83.3,29.9,72.9,39.2C62.5,48.4,47.3,52,34.3,60.6C21.4,69.2,10.7,82.8,0,82.7C-10.6,82.7,-21.2,68.8,-34.5,60.4C-47.8,52,-63.8,49,-72,39.9C-80.3,30.7,-80.8,15.3,-78.4,1.4C-76,-12.6,-70.7,-25.2,-62.1,-33.7C-53.5,-42.3,-41.6,-46.8,-30.7,-53C-19.8,-59.2,-9.9,-67.1,1.2,-69.2C12.4,-71.4,24.8,-67.9,38.4,-63.2Z" transform="translate(100 100)" />
</svg>
