<?xml version="1.0" standalone="no"?>
<svg viewBox="0 0 200 200" xmlns="http://www.w3.org/2000/svg">
  <path fill="#532D39" d="M37.7,-54.3C49.2,-51.2,59.2,-41.4,65.1,-29.4C71,-17.5,72.9,-3.4,73.9,12.8C74.9,28.9,75,47,64.9,53.2C54.8,59.4,34.5,53.7,19,53C3.5,52.3,-7.2,56.5,-20.4,57.9C-33.6,59.2,-49.3,57.8,-62.7,50C-76.1,42.3,-87.2,28.2,-87.8,13.6C-88.4,-1.1,-78.6,-16.2,-69.2,-29.4C-59.8,-42.6,-50.8,-53.8,-39.3,-56.9C-27.9,-60,-13.9,-55,-0.4,-54.4C13.1,-53.7,26.2,-57.4,37.7,-54.3Z" transform="translate(100 100)" />
</svg>
