<?xml version="1.0" standalone="no"?>
<svg viewBox="0 0 200 200" xmlns="http://www.w3.org/2000/svg">
  <path fill="#ACAEBA" d="M41.5,-68.5C54.9,-64.1,67.6,-55.2,75.5,-43.1C83.4,-30.9,86.3,-15.5,81.9,-2.6C77.5,10.4,65.7,20.7,58.1,33.4C50.5,46,47.1,60.8,38.1,66.1C29.1,71.3,14.6,67.1,1.1,65.2C-12.4,63.3,-24.8,63.9,-34.4,58.9C-44,54,-50.7,43.6,-59.9,32.9C-69,22.1,-80.6,11.1,-84.3,-2.1C-87.9,-15.3,-83.8,-30.6,-72.9,-38.4C-62,-46.2,-44.5,-46.4,-31.2,-50.9C-17.9,-55.4,-9,-64.1,2.5,-68.5C14,-72.9,28.1,-72.9,41.5,-68.5Z" transform="translate(100 100)" />
</svg>
